<mxfile host="app.diagrams.net" modified="2023-10-11T17:47:27.066Z" agent="Mozilla/5.0 (Windows NT 10.0; Win64; x64) AppleWebKit/537.36 (KHTML, like Gecko) Chrome/117.0.0.0 Safari/537.36" version="22.0.4" etag="51fCcFpVQtkTUhGl2B5u" type="github">
  <diagram name="Страница — 1" id="T-DKoPtSWhTibY__fKl3">
    <mxGraphModel>
      <root>
        <mxCell id="0" />
        <mxCell id="1" parent="0" />
      </root>
    </mxGraphModel>
  </diagram>
</mxfile>
